<svg viewBox="0 0 1024 1024" xmlns="http://www.w3.org/2000/svg" width="81" height="81"><path d="M853.333333 469.333333v85.333334H640V384h-85.333333v170.666667H384V384h-85.333333v170.666667H128v-85.333334c0-72.533333 40.533333-134.4 99.84-166.826666L170.666667 204.373333 234.666667 149.333333l80.64 128.64C350.293333 261.12 389.973333 253.653333 426.666667 253.653333h170.666666c36.693333 0 76.373333 7.68 111.36 24.32l80.64-128.64L853.333333 204.373333 796.16 302.506667C855.466667 334.933333 896 396.8 896 469.333333h-42.666667zM768 597.333333H256c-46.933333 0-85.333333 38.4-85.333333 85.333334v85.333333c0 46.933333 38.4 85.333333 85.333333 85.333333h512c46.933333 0 85.333333-38.4 85.333333-85.333333v-85.333333c0-46.933333-38.4-85.333333-85.333333-85.333334z m-341.333333 170.666667H341.333333v-85.333333h85.333334v85.333333z m256 0h-85.333334v-85.333333h85.333334v85.333333z" fill="#8a8a8a"></path></svg>