<svg viewBox="0 0 1024 1024" xmlns="http://www.w3.org/2000/svg" width="81" height="81"><path d="M407.2 160.576a184.896 184.896 0 0 1 209.6 0l224.864 156.064c65.536 45.472 73.088 137.056 15.584 191.936-12.192 11.616-18.944 27.2-18.944 43.296v171.712c0 95.552-80.544 172.416-179.168 172.416h-294.272c-98.624 0-179.168-76.864-179.168-172.416v-171.712c0-16.128-6.72-31.68-18.944-43.296-57.504-54.88-49.952-146.464 15.584-191.936z m173.12 52.576c-40.64-28.192-96-28.192-136.64 0l-224.864 156.064c-32.384 22.464-35.968 66.24-7.872 93.056l5.12 5.184c21.568 23.04 33.632 53.12 33.632 84.416v171.712c0 59.52 51.232 108.416 115.168 108.416h294.272c63.936 0 115.168-48.896 115.168-108.416v-171.712a123.84 123.84 0 0 1 38.752-89.6l3.488-3.584c24.256-27.008 19.616-67.968-11.36-89.472z m-200.64 406.624A170.24 170.24 0 0 0 512 682.656a170.24 170.24 0 0 0 132.32-62.88 32 32 0 1 1 49.6 40.48 234.24 234.24 0 0 1-181.92 86.4 234.24 234.24 0 0 1-181.92-86.4 32 32 0 0 1 49.6-40.48z" fill="#8a8a8a"></path></svg>