<svg viewBox="0 0 1024 1024" xmlns="http://www.w3.org/2000/svg" width="81" height="81"><path d="M407.2 160.576L182.336 316.64c-65.536 45.472-73.088 137.056-15.584 191.936 12.192 11.616 18.944 27.2 18.944 43.296v171.712C185.696 819.136 266.24 896 364.864 896h294.272c98.624 0 179.168-76.864 179.168-172.416v-171.712c0-16.128 6.72-31.68 18.944-43.296 57.504-54.88 49.952-146.464-15.584-191.936l-224.864-156.064a184.896 184.896 0 0 0-209.6 0z" fill="#667eea"></path><path d="M689.344 615.232a32 32 0 0 1 4.544 45.024 234.24 234.24 0 0 1-181.888 86.4 234.24 234.24 0 0 1-181.92-86.4 32 32 0 0 1 49.6-40.48A170.24 170.24 0 0 0 512 682.656a170.24 170.24 0 0 0 132.32-62.88 32 32 0 0 1 45.024-4.544z" fill="#667eea"></path></svg>