<svg viewBox="0 0 1024 1024" xmlns="http://www.w3.org/2000/svg" width="81" height="81"><path d="M512 96c229.76 0 416 186.24 416 416s-186.24 416-416 416S96 741.76 96 512 282.24 96 512 96z" fill="#667eea"></path><path d="M442.56 432.64c0-40.256-20.864-69.472-49.6-69.472-28.8 0-49.632 29.216-49.632 69.44 0 40.256 20.8 69.44 49.6 69.44s49.6-29.184 49.6-69.44zM580.032 479.04a32 32 0 0 1-23.04-38.976 74.688 74.688 0 0 1 144.672 0.064 32 32 0 0 1-61.984 15.872 10.688 10.688 0 0 0-20.672 0 32 32 0 0 1-38.976 23.04zM689.344 615.264a32 32 0 0 1 4.544 45.024 234.24 234.24 0 0 1-181.888 86.4 234.24 234.24 0 0 1-181.92-86.432 32 32 0 1 1 49.6-40.448A170.24 170.24 0 0 0 512 682.656a170.24 170.24 0 0 0 132.32-62.848 32 32 0 0 1 45.024-4.544z" fill="#fff"></path></svg>