<svg viewBox="0 0 1024 1024" xmlns="http://www.w3.org/2000/svg" width="81" height="81"><path d="M512 96c229.76 0 416 186.24 416 416s-186.24 416-416 416S96 741.76 96 512 282.24 96 512 96z m0 64C317.6 160 160 317.6 160 512s157.6 352 352 352 352-157.6 352-352S706.4 160 512 160z m-132.32 459.808A170.24 170.24 0 0 0 512 682.656a170.24 170.24 0 0 0 132.32-62.848 32 32 0 0 1 49.6 40.48 234.24 234.24 0 0 1-181.92 86.4 234.24 234.24 0 0 1-181.92-86.432 32 32 0 1 1 49.6-40.448z m13.248-256.64c28.8 0 49.6 29.216 49.6 69.44 0 40.256-20.8 69.44-49.6 69.44s-49.6-29.184-49.6-69.44c0-40.224 20.8-69.44 49.6-69.44z m236.416 20.8c34.304 0 63.936 23.36 72.32 56.16a32 32 0 1 1-61.984 15.872 10.688 10.688 0 0 0-20.672 0 32 32 0 0 1-62.016-15.936A74.688 74.688 0 0 1 629.312 384z" fill="#8a8a8a"></path></svg>