<svg viewBox="0 0 1024 1024" xmlns="http://www.w3.org/2000/svg" width="81" height="81"><path d="M713.152 194.048h-10.88C698.368 142.592 665.728 112 612.576 112h-201.152c-53.12 0-85.792 30.592-89.696 82.048h-10.88C213.568 194.048 160 248.704 160 347.904v410.24c0 99.2 53.6 153.856 150.848 153.856h402.304c97.28 0 150.848-54.656 150.848-153.856v-410.24c0-99.2-53.6-153.856-150.848-153.856z m-331.904 10.24c0-24.16 6.496-30.72 30.176-30.72h201.152c23.68 0 30.176 6.56 30.176 30.72v41.056c0 24.16-6.496 30.752-30.176 30.752h-201.152c-23.68 0-30.176-6.592-30.176-30.752V204.32z m422.4 553.856c0 64.704-27.072 92.32-90.496 92.32H310.848c-63.424 0-90.496-27.616-90.496-92.32v-410.24c0-64.704 27.072-92.32 90.496-92.32h10.88c3.904 51.456 36.544 82.048 89.696 82.048h201.152c53.12 0 85.792-30.592 89.696-82.048h10.88c63.424 0 90.496 27.616 90.496 92.32v410.24zM662.848 512c0 16.96-13.504 30.784-30.176 30.784H391.36a30.496 30.496 0 0 1-30.176-30.784c0-16.96 13.504-30.784 30.176-30.784h241.344c16.64 0 30.176 13.792 30.176 30.784zM582.4 676.096c0 16.992-13.504 30.784-30.176 30.784H391.36a30.496 30.496 0 0 1-30.176-30.784c0-16.96 13.504-30.752 30.176-30.752h160.896c16.64 0 30.176 13.76 30.176 30.752z" fill="#8a8a8a"></path></svg>