<svg viewBox="0 0 1024 1024" xmlns="http://www.w3.org/2000/svg" width="81" height="81"><path d="M336 239.104V194.656C336 150.208 358.016 128 402.016 128h219.968c44 0 66.016 22.208 66.016 66.656v44.48c0 44.416-22.016 66.656-66.016 66.656h-220c-43.968 0-65.984-22.24-65.984-66.688zM864 350.208v444.48C864 883.52 820 928 732 928H292C204 928 160 883.552 160 794.656V350.208c0-77.408 33.088-120.992 99.648-130.784a9.248 9.248 0 0 1 10.368 9.056v10.56c0 80.928 51.904 133.376 131.968 133.376h220.032c80.064 0 132-52.48 132-133.344v-10.56a9.28 9.28 0 0 1 10.336-9.088C830.912 229.216 864 272.8 864 350.208z m-275.008 355.584c0-18.4-14.784-33.344-32.992-33.344h-176c-18.24 0-32.992 14.944-32.992 33.344s14.784 33.312 32.992 33.312h176c18.24 0 32.992-14.912 32.992-33.312z m88-177.792c0-18.4-14.784-33.344-32.992-33.344h-264c-18.24 0-32.992 14.944-32.992 33.344s14.784 33.344 32.992 33.344h264c18.24 0 32.992-14.944 32.992-33.344z" fill="#667eea"></path></svg>